<mxfile host="app.diagrams.net" agent="Mozilla/5.0 (Windows NT 10.0; Win64; x64) AppleWebKit/537.36 (KHTML, like Gecko) Chrome/140.0.0.0 Safari/537.36 Edg/140.0.0.0" version="28.2.4">
  <diagram name="Page-1" id="UAXPRBSMlVz8UvEeHbpC">
    <mxGraphModel dx="2669" dy="814" grid="1" gridSize="10" guides="1" tooltips="1" connect="1" arrows="1" fold="1" page="1" pageScale="1" pageWidth="850" pageHeight="1100" background="light-dark(#FFFFFF,#FFFFFF)" math="0" shadow="0">
      <root>
        <mxCell id="0" />
        <mxCell id="1" parent="0" />
        <mxCell id="2cN2OPtdUE4IDWIQNZ6Z-9" value="&amp;nbsp; Front End Layer&lt;div&gt;&lt;br&gt;&lt;/div&gt;&lt;div&gt;&lt;br&gt;&lt;/div&gt;&lt;div&gt;&lt;br&gt;&lt;/div&gt;&lt;div&gt;&lt;br&gt;&lt;/div&gt;&lt;div&gt;&lt;br&gt;&lt;/div&gt;&lt;div&gt;&lt;br&gt;&lt;/div&gt;&lt;div&gt;&lt;br&gt;&lt;/div&gt;&lt;div&gt;&lt;br&gt;&lt;/div&gt;&lt;div&gt;&lt;br&gt;&lt;/div&gt;&lt;div&gt;&lt;br&gt;&lt;/div&gt;&lt;div&gt;&lt;br&gt;&lt;/div&gt;&lt;div&gt;&lt;br&gt;&lt;/div&gt;&lt;div&gt;&lt;br&gt;&lt;/div&gt;&lt;div&gt;&lt;br&gt;&lt;/div&gt;&lt;div&gt;&lt;br&gt;&lt;/div&gt;&lt;div&gt;&lt;br&gt;&lt;/div&gt;&lt;div&gt;&lt;br&gt;&lt;/div&gt;&lt;div&gt;&lt;br&gt;&lt;/div&gt;&lt;div&gt;&lt;br&gt;&lt;/div&gt;&lt;div&gt;&lt;br&gt;&lt;/div&gt;&lt;div&gt;&lt;br&gt;&lt;/div&gt;" style="rounded=0;whiteSpace=wrap;html=1;fillColor=#EBEBEB;align=left;" vertex="1" parent="1">
          <mxGeometry x="730" y="350" width="320" height="330" as="geometry" />
        </mxCell>
        <mxCell id="2cN2OPtdUE4IDWIQNZ6Z-8" value="&amp;nbsp; Backend layer&lt;div&gt;&lt;br&gt;&lt;/div&gt;&lt;div&gt;&lt;br&gt;&lt;/div&gt;&lt;div&gt;&lt;br&gt;&lt;/div&gt;&lt;div&gt;&lt;br&gt;&lt;/div&gt;&lt;div&gt;&lt;br&gt;&lt;/div&gt;&lt;div&gt;&lt;br&gt;&lt;/div&gt;&lt;div&gt;&lt;br&gt;&lt;/div&gt;&lt;div&gt;&lt;br&gt;&lt;/div&gt;&lt;div&gt;&lt;br&gt;&lt;/div&gt;&lt;div&gt;&lt;br&gt;&lt;/div&gt;&lt;div&gt;&lt;br&gt;&lt;/div&gt;&lt;div&gt;&lt;br&gt;&lt;/div&gt;&lt;div&gt;&lt;br&gt;&lt;/div&gt;&lt;div&gt;&lt;br&gt;&lt;/div&gt;&lt;div&gt;&lt;br&gt;&lt;/div&gt;&lt;div&gt;&lt;br&gt;&lt;/div&gt;&lt;div&gt;&lt;br&gt;&lt;/div&gt;&lt;div&gt;&lt;br&gt;&lt;/div&gt;&lt;div&gt;&lt;br&gt;&lt;/div&gt;&lt;div&gt;&lt;br&gt;&lt;/div&gt;&lt;div&gt;&lt;br&gt;&lt;/div&gt;&lt;div&gt;&lt;br&gt;&lt;/div&gt;&lt;div&gt;&lt;br&gt;&lt;/div&gt;&lt;div&gt;&lt;br&gt;&lt;/div&gt;&lt;div&gt;&lt;br&gt;&lt;/div&gt;&lt;div&gt;&lt;br&gt;&lt;/div&gt;&lt;div&gt;&lt;br&gt;&lt;/div&gt;&lt;div&gt;&lt;br&gt;&lt;/div&gt;&lt;div&gt;&lt;br&gt;&lt;/div&gt;&lt;div&gt;&lt;br&gt;&lt;/div&gt;&lt;div&gt;&lt;br&gt;&lt;/div&gt;&lt;div&gt;&lt;br&gt;&lt;/div&gt;&lt;div&gt;&lt;br&gt;&lt;/div&gt;&lt;div&gt;&lt;br&gt;&lt;/div&gt;&lt;div&gt;&lt;br&gt;&lt;div&gt;&lt;br&gt;&lt;/div&gt;&lt;/div&gt;" style="rounded=0;whiteSpace=wrap;html=1;fillColor=#EBEBEB;align=left;" vertex="1" parent="1">
          <mxGeometry x="185" y="120" width="480" height="560" as="geometry" />
        </mxCell>
        <mxCell id="o0Aq0cgtpdld315TeTkO-14" value="Send to Backend" style="edgeStyle=orthogonalEdgeStyle;rounded=0;orthogonalLoop=1;jettySize=auto;html=1;exitX=1;exitY=0.5;exitDx=0;exitDy=0;fontColor=light-dark(#000000,#000000);strokeColor=light-dark(#000000,#000000);labelBackgroundColor=none;spacingTop=-20;spacing=0;entryX=0.5;entryY=0;entryDx=0;entryDy=0;" parent="1" source="o0Aq0cgtpdld315TeTkO-6" target="o0Aq0cgtpdld315TeTkO-10" edge="1">
          <mxGeometry x="-0.6923" y="-20" relative="1" as="geometry">
            <mxPoint x="1" as="offset" />
          </mxGeometry>
        </mxCell>
        <mxCell id="o0Aq0cgtpdld315TeTkO-6" value="&lt;div&gt;User Input&lt;/div&gt;" style="swimlane;fontStyle=0;childLayout=stackLayout;horizontal=1;startSize=30;horizontalStack=0;resizeParent=1;resizeParentMax=0;resizeLast=0;collapsible=1;marginBottom=0;whiteSpace=wrap;html=1;fillColor=light-dark(#FFFFFF,#A7A7A7);strokeColor=light-dark(#000000,#000000);swimlaneFillColor=none;fontColor=light-dark(#000000,#060606);" parent="1" vertex="1">
          <mxGeometry x="-70" y="170" width="160" height="200" as="geometry">
            <mxRectangle x="40" y="160" width="90" height="30" as="alternateBounds" />
          </mxGeometry>
        </mxCell>
        <mxCell id="o0Aq0cgtpdld315TeTkO-7" value="&lt;div&gt;User Info&lt;/div&gt;&lt;div&gt;(user, pass)&lt;/div&gt;" style="text;strokeColor=light-dark(#000000,#000000);fillColor=light-dark(#FFFFFF,#FCFCFC);align=center;verticalAlign=middle;spacingLeft=4;spacingRight=4;overflow=hidden;points=[[0,0.5],[1,0.5]];portConstraint=eastwest;rotatable=0;whiteSpace=wrap;html=1;fontColor=light-dark(#000000,#060606);" parent="o0Aq0cgtpdld315TeTkO-6" vertex="1">
          <mxGeometry y="30" width="160" height="40" as="geometry" />
        </mxCell>
        <mxCell id="o0Aq0cgtpdld315TeTkO-8" value="&lt;div&gt;Post Info&lt;/div&gt;&lt;div&gt;(text, images, video)&lt;/div&gt;" style="text;strokeColor=light-dark(#000000,#000000);fillColor=light-dark(#FFFFFF,#FCFCFC);align=center;verticalAlign=middle;spacingLeft=4;spacingRight=4;overflow=hidden;points=[[0,0.5],[1,0.5]];portConstraint=eastwest;rotatable=0;whiteSpace=wrap;html=1;fontColor=light-dark(#000000,#060606);" parent="o0Aq0cgtpdld315TeTkO-6" vertex="1">
          <mxGeometry y="70" width="160" height="50" as="geometry" />
        </mxCell>
        <mxCell id="o0Aq0cgtpdld315TeTkO-9" value="&lt;div&gt;Location of Post&lt;/div&gt;&lt;div&gt;(geolocation, metadata)&lt;/div&gt;" style="text;strokeColor=light-dark(#000000,#000000);fillColor=light-dark(#FFFFFF,#FCFCFC);align=center;verticalAlign=middle;spacingLeft=4;spacingRight=4;overflow=hidden;points=[[0,0.5],[1,0.5]];portConstraint=eastwest;rotatable=0;whiteSpace=wrap;html=1;fontColor=light-dark(#000000,#060606);" parent="o0Aq0cgtpdld315TeTkO-6" vertex="1">
          <mxGeometry y="120" width="160" height="40" as="geometry" />
        </mxCell>
        <mxCell id="o0Aq0cgtpdld315TeTkO-16" value="&lt;div&gt;Device Hardware&lt;/div&gt;&lt;div&gt;(camera, GPS)&lt;/div&gt;" style="text;strokeColor=light-dark(#000000,#000000);fillColor=light-dark(#FFFFFF,#FCFCFC);align=center;verticalAlign=middle;spacingLeft=4;spacingRight=4;overflow=hidden;points=[[0,0.5],[1,0.5]];portConstraint=eastwest;rotatable=0;whiteSpace=wrap;html=1;fontColor=light-dark(#000000,#060606);" parent="o0Aq0cgtpdld315TeTkO-6" vertex="1">
          <mxGeometry y="160" width="160" height="40" as="geometry" />
        </mxCell>
        <mxCell id="2cN2OPtdUE4IDWIQNZ6Z-16" style="edgeStyle=orthogonalEdgeStyle;rounded=0;orthogonalLoop=1;jettySize=auto;html=1;exitX=0.5;exitY=1;exitDx=0;exitDy=0;entryX=0.5;entryY=0;entryDx=0;entryDy=0;" edge="1" parent="1" source="o0Aq0cgtpdld315TeTkO-10" target="2cN2OPtdUE4IDWIQNZ6Z-7">
          <mxGeometry relative="1" as="geometry" />
        </mxCell>
        <mxCell id="o0Aq0cgtpdld315TeTkO-10" value="Application Core" style="swimlane;fontStyle=0;childLayout=stackLayout;horizontal=1;startSize=30;horizontalStack=0;resizeParent=1;resizeParentMax=0;resizeLast=0;collapsible=1;marginBottom=0;whiteSpace=wrap;html=1;fillColor=light-dark(#FFFFFF,#A7A7A7);strokeColor=light-dark(#000000,#000000);swimlaneFillColor=none;fontColor=light-dark(#000000,#060606);" parent="1" vertex="1">
          <mxGeometry x="340" y="170" width="175" height="210" as="geometry" />
        </mxCell>
        <mxCell id="o0Aq0cgtpdld315TeTkO-11" value="Auth verification for user creds" style="text;strokeColor=light-dark(#000000,#000000);fillColor=light-dark(#FFFFFF,#FCFCFC);align=center;verticalAlign=middle;spacingLeft=4;spacingRight=4;overflow=hidden;points=[[0,0.5],[1,0.5]];portConstraint=eastwest;rotatable=0;whiteSpace=wrap;html=1;fontColor=light-dark(#000000,#060606);" parent="o0Aq0cgtpdld315TeTkO-10" vertex="1">
          <mxGeometry y="30" width="175" height="40" as="geometry" />
        </mxCell>
        <mxCell id="o0Aq0cgtpdld315TeTkO-12" value="Create &amp;amp; Manage posts" style="text;strokeColor=light-dark(#000000,#000000);fillColor=light-dark(#FFFFFF,#FCFCFC);align=center;verticalAlign=middle;spacingLeft=4;spacingRight=4;overflow=hidden;points=[[0,0.5],[1,0.5]];portConstraint=eastwest;rotatable=0;whiteSpace=wrap;html=1;fontColor=light-dark(#000000,#060606);" parent="o0Aq0cgtpdld315TeTkO-10" vertex="1">
          <mxGeometry y="70" width="175" height="90" as="geometry" />
        </mxCell>
        <mxCell id="o0Aq0cgtpdld315TeTkO-15" value="Manage permissions for device" style="text;strokeColor=light-dark(#000000,#000000);fillColor=light-dark(#FFFFFF,#FCFCFC);align=center;verticalAlign=middle;spacingLeft=4;spacingRight=4;overflow=hidden;points=[[0,0.5],[1,0.5]];portConstraint=eastwest;rotatable=0;whiteSpace=wrap;html=1;fontColor=light-dark(#000000,#060606);" parent="o0Aq0cgtpdld315TeTkO-10" vertex="1">
          <mxGeometry y="160" width="175" height="50" as="geometry" />
        </mxCell>
        <mxCell id="o0Aq0cgtpdld315TeTkO-17" value="&lt;div&gt;Output&lt;/div&gt;" style="swimlane;fontStyle=0;childLayout=stackLayout;horizontal=1;startSize=30;horizontalStack=0;resizeParent=1;resizeParentMax=0;resizeLast=0;collapsible=1;marginBottom=0;whiteSpace=wrap;html=1;fillColor=light-dark(#FFFFFF,#A7A7A7);strokeColor=light-dark(#000000,#000000);swimlaneFillColor=none;fontColor=light-dark(#000000,#060606);" parent="1" vertex="1">
          <mxGeometry x="795" y="415" width="190" height="200" as="geometry" />
        </mxCell>
        <mxCell id="o0Aq0cgtpdld315TeTkO-18" value="Map Feed of Posts" style="text;strokeColor=light-dark(#000000,#000000);fillColor=light-dark(#FFFFFF,#FCFCFC);align=center;verticalAlign=middle;spacingLeft=4;spacingRight=4;overflow=hidden;points=[[0,0.5],[1,0.5]];portConstraint=eastwest;rotatable=0;whiteSpace=wrap;html=1;fontColor=light-dark(#000000,#060606);" parent="o0Aq0cgtpdld315TeTkO-17" vertex="1">
          <mxGeometry y="30" width="190" height="50" as="geometry" />
        </mxCell>
        <mxCell id="o0Aq0cgtpdld315TeTkO-19" value="Notifications" style="text;strokeColor=light-dark(#000000,#000000);fillColor=light-dark(#FFFFFF,#FCFCFC);align=center;verticalAlign=middle;spacingLeft=4;spacingRight=4;overflow=hidden;points=[[0,0.5],[1,0.5]];portConstraint=eastwest;rotatable=0;whiteSpace=wrap;html=1;fontColor=light-dark(#000000,#060606);" parent="o0Aq0cgtpdld315TeTkO-17" vertex="1">
          <mxGeometry y="80" width="190" height="70" as="geometry" />
        </mxCell>
        <mxCell id="o0Aq0cgtpdld315TeTkO-20" value="Local User Discovery" style="text;strokeColor=light-dark(#000000,#000000);fillColor=light-dark(#FFFFFF,#FCFCFC);align=center;verticalAlign=middle;spacingLeft=4;spacingRight=4;overflow=hidden;points=[[0,0.5],[1,0.5]];portConstraint=eastwest;rotatable=0;whiteSpace=wrap;html=1;fontColor=light-dark(#000000,#060606);" parent="o0Aq0cgtpdld315TeTkO-17" vertex="1">
          <mxGeometry y="150" width="190" height="50" as="geometry" />
        </mxCell>
        <mxCell id="2cN2OPtdUE4IDWIQNZ6Z-6" value="" style="group" vertex="1" connectable="0" parent="1">
          <mxGeometry x="242.5" y="530" width="370" height="130" as="geometry" />
        </mxCell>
        <mxCell id="2cN2OPtdUE4IDWIQNZ6Z-2" value="" style="rounded=0;whiteSpace=wrap;html=1;movable=1;resizable=1;rotatable=1;deletable=1;editable=1;locked=0;connectable=1;" vertex="1" parent="2cN2OPtdUE4IDWIQNZ6Z-6">
          <mxGeometry width="369.99999999999994" height="130" as="geometry" />
        </mxCell>
        <mxCell id="2cN2OPtdUE4IDWIQNZ6Z-3" value="User Database" style="shape=cylinder3;whiteSpace=wrap;html=1;boundedLbl=1;backgroundOutline=1;size=15;movable=1;resizable=1;rotatable=1;deletable=1;editable=1;locked=0;connectable=1;" vertex="1" parent="2cN2OPtdUE4IDWIQNZ6Z-6">
          <mxGeometry x="30.83333333333333" y="30" width="61.66666666666666" height="80" as="geometry" />
        </mxCell>
        <mxCell id="2cN2OPtdUE4IDWIQNZ6Z-4" value="Post Database" style="shape=cylinder3;whiteSpace=wrap;html=1;boundedLbl=1;backgroundOutline=1;size=15;movable=1;resizable=1;rotatable=1;deletable=1;editable=1;locked=0;connectable=1;" vertex="1" parent="2cN2OPtdUE4IDWIQNZ6Z-6">
          <mxGeometry x="154.16666666666666" y="30" width="61.66666666666666" height="80" as="geometry" />
        </mxCell>
        <mxCell id="2cN2OPtdUE4IDWIQNZ6Z-5" value="Image Blob Storage" style="shape=cylinder3;whiteSpace=wrap;html=1;boundedLbl=1;backgroundOutline=1;size=15;movable=1;resizable=1;rotatable=1;deletable=1;editable=1;locked=0;connectable=1;" vertex="1" parent="2cN2OPtdUE4IDWIQNZ6Z-6">
          <mxGeometry x="277.5" y="30" width="61.66666666666666" height="80" as="geometry" />
        </mxCell>
        <mxCell id="2cN2OPtdUE4IDWIQNZ6Z-15" style="edgeStyle=orthogonalEdgeStyle;rounded=0;orthogonalLoop=1;jettySize=auto;html=1;entryX=0.5;entryY=0;entryDx=0;entryDy=0;" edge="1" parent="1" source="2cN2OPtdUE4IDWIQNZ6Z-7" target="2cN2OPtdUE4IDWIQNZ6Z-2">
          <mxGeometry relative="1" as="geometry" />
        </mxCell>
        <mxCell id="2cN2OPtdUE4IDWIQNZ6Z-17" style="edgeStyle=orthogonalEdgeStyle;rounded=0;orthogonalLoop=1;jettySize=auto;html=1;exitX=0.75;exitY=0;exitDx=0;exitDy=0;" edge="1" parent="1" source="2cN2OPtdUE4IDWIQNZ6Z-7" target="2cN2OPtdUE4IDWIQNZ6Z-8">
          <mxGeometry relative="1" as="geometry">
            <Array as="points">
              <mxPoint x="550" y="390" />
              <mxPoint x="550" y="390" />
            </Array>
          </mxGeometry>
        </mxCell>
        <mxCell id="2cN2OPtdUE4IDWIQNZ6Z-7" value="API Gateway" style="rounded=1;whiteSpace=wrap;html=1;" vertex="1" parent="1">
          <mxGeometry x="245" y="430" width="365" height="60" as="geometry" />
        </mxCell>
        <mxCell id="2cN2OPtdUE4IDWIQNZ6Z-18" style="edgeStyle=orthogonalEdgeStyle;rounded=0;orthogonalLoop=1;jettySize=auto;html=1;exitX=0.75;exitY=0;exitDx=0;exitDy=0;entryX=0.75;entryY=1;entryDx=0;entryDy=0;" edge="1" parent="1" source="2cN2OPtdUE4IDWIQNZ6Z-2" target="2cN2OPtdUE4IDWIQNZ6Z-7">
          <mxGeometry relative="1" as="geometry" />
        </mxCell>
        <mxCell id="2cN2OPtdUE4IDWIQNZ6Z-20" style="edgeStyle=orthogonalEdgeStyle;rounded=0;orthogonalLoop=1;jettySize=auto;html=1;exitX=0.75;exitY=0;exitDx=0;exitDy=0;entryX=0.5;entryY=0;entryDx=0;entryDy=0;" edge="1" parent="1" source="2cN2OPtdUE4IDWIQNZ6Z-7" target="o0Aq0cgtpdld315TeTkO-17">
          <mxGeometry relative="1" as="geometry">
            <Array as="points">
              <mxPoint x="580" y="430" />
              <mxPoint x="580" y="290" />
              <mxPoint x="890" y="290" />
            </Array>
          </mxGeometry>
        </mxCell>
        <mxCell id="2cN2OPtdUE4IDWIQNZ6Z-30" value="Send to Front End UI" style="edgeLabel;html=1;align=center;verticalAlign=middle;resizable=0;points=[];" vertex="1" connectable="0" parent="2cN2OPtdUE4IDWIQNZ6Z-20">
          <mxGeometry x="0.1827" relative="1" as="geometry">
            <mxPoint x="1" as="offset" />
          </mxGeometry>
        </mxCell>
        <mxCell id="2cN2OPtdUE4IDWIQNZ6Z-28" style="edgeStyle=orthogonalEdgeStyle;rounded=0;orthogonalLoop=1;jettySize=auto;html=1;exitX=1;exitY=0.3333333333333333;exitDx=0;exitDy=0;exitPerimeter=0;entryX=0;entryY=0.5;entryDx=0;entryDy=0;" edge="1" parent="1" source="2cN2OPtdUE4IDWIQNZ6Z-21" target="o0Aq0cgtpdld315TeTkO-7">
          <mxGeometry relative="1" as="geometry">
            <Array as="points">
              <mxPoint x="-170" y="183" />
              <mxPoint x="-170" y="220" />
            </Array>
          </mxGeometry>
        </mxCell>
        <mxCell id="2cN2OPtdUE4IDWIQNZ6Z-21" value="User&lt;div&gt;&lt;br&gt;&lt;/div&gt;" style="shape=umlActor;verticalLabelPosition=bottom;verticalAlign=top;html=1;outlineConnect=0;" vertex="1" parent="1">
          <mxGeometry x="-260" y="150" width="50" height="100" as="geometry" />
        </mxCell>
        <mxCell id="2cN2OPtdUE4IDWIQNZ6Z-25" style="edgeStyle=orthogonalEdgeStyle;rounded=0;orthogonalLoop=1;jettySize=auto;html=1;entryX=0;entryY=0.5;entryDx=0;entryDy=0;" edge="1" parent="1" source="2cN2OPtdUE4IDWIQNZ6Z-23" target="o0Aq0cgtpdld315TeTkO-9">
          <mxGeometry relative="1" as="geometry" />
        </mxCell>
        <mxCell id="2cN2OPtdUE4IDWIQNZ6Z-23" value="Device Location Services" style="strokeWidth=2;html=1;shape=mxgraph.flowchart.direct_data;whiteSpace=wrap;" vertex="1" parent="1">
          <mxGeometry x="-277.5" y="300" width="125" height="60" as="geometry" />
        </mxCell>
        <mxCell id="2cN2OPtdUE4IDWIQNZ6Z-26" style="edgeStyle=orthogonalEdgeStyle;rounded=0;orthogonalLoop=1;jettySize=auto;html=1;entryX=0;entryY=0.5;entryDx=0;entryDy=0;exitX=1;exitY=0.5;exitDx=0;exitDy=0;exitPerimeter=0;" edge="1" parent="1" source="2cN2OPtdUE4IDWIQNZ6Z-24" target="o0Aq0cgtpdld315TeTkO-16">
          <mxGeometry relative="1" as="geometry" />
        </mxCell>
        <mxCell id="2cN2OPtdUE4IDWIQNZ6Z-24" value="Device Hardware" style="strokeWidth=2;html=1;shape=mxgraph.flowchart.direct_data;whiteSpace=wrap;" vertex="1" parent="1">
          <mxGeometry x="-277.5" y="380" width="125" height="60" as="geometry" />
        </mxCell>
        <mxCell id="2cN2OPtdUE4IDWIQNZ6Z-29" style="edgeStyle=orthogonalEdgeStyle;rounded=0;orthogonalLoop=1;jettySize=auto;html=1;" edge="1" parent="1" target="o0Aq0cgtpdld315TeTkO-8">
          <mxGeometry relative="1" as="geometry">
            <mxPoint x="-170" y="190" as="sourcePoint" />
            <mxPoint x="-100" y="267" as="targetPoint" />
          </mxGeometry>
        </mxCell>
      </root>
    </mxGraphModel>
  </diagram>
</mxfile>
